<?xml version="1.0" encoding="UTF-8"?>
<svg id="Layer_1" data-name="Layer 1" xmlns="http://www.w3.org/2000/svg" width="128" height="128" viewBox="0 0 128 128">
  <defs>
    <style>
      .cls-1 {
        fill: #00c240;
      }
    </style>
  </defs>
  <g transform="translate(9, 22)">
    <path class="cls-1" d="M38.28,59.74v5.1c0,2.55-.48,4.97-1.45,7.25-.97,2.28-2.3,4.31-4,6.09-1.7,1.78-3.69,3.19-5.97,4.23-2.28,1.04-4.74,1.57-7.37,1.57-2.24,0-4.52-.31-6.84-.93-2.32-.62-4.41-1.7-6.26-3.25-1.86-1.55-3.38-3.54-4.58-5.97-1.2-2.44-1.8-5.55-1.8-9.34V19.02c0-2.71.46-5.22,1.39-7.54.93-2.32,2.24-4.33,3.94-6.03,1.7-1.7,3.73-3.03,6.09-4,2.36-.97,4.97-1.45,7.83-1.45,5.57,0,10.09,1.82,13.57,5.45,1.7,1.78,3.03,3.89,4,6.32.97,2.44,1.45,5.09,1.45,7.95v4.64h-11.83v-3.94c0-2.32-.66-4.33-1.97-6.03-1.32-1.7-3.09-2.55-5.34-2.55-2.94,0-4.89.91-5.86,2.73-.97,1.82-1.45,4.12-1.45,6.9v42.22c0,2.4.52,4.41,1.57,6.03s2.92,2.44,5.63,2.44c.77,0,1.6-.13,2.49-.41.89-.27,1.72-.71,2.49-1.33.7-.62,1.28-1.47,1.74-2.55.46-1.08.7-2.44.7-4.06v-4.06h11.83Z"/>
    <path class="cls-1" d="M48.26,83.29V.7h11.83v82.59h-11.83Z"/>
    <path class="cls-1" d="M71.57,83.29V.7h17.52c6.8,0,11.97,1.86,15.49,5.57,3.52,3.71,5.28,8.97,5.28,15.78v38.63c0,7.73-1.88,13.44-5.62,17.11-3.75,3.67-9.15,5.51-16.18,5.51h-16.47ZM83.4,11.83v60.32h5.45c3.32,0,5.68-.83,7.08-2.49,1.39-1.66,2.09-4.27,2.09-7.83V22.04c0-3.25-.66-5.76-1.97-7.54-1.32-1.78-3.71-2.67-7.19-2.67h-5.45Z"/>
  </g>
</svg>